<svg width="24" height="24" viewBox="0 0 24 24" fill="none" xmlns="http://www.w3.org/2000/svg">
<path d="M17.9293 2.97675C17.5237 2.97773 17.1222 3.05902 16.7481 3.21594C16.3741 3.37285 16.0348 3.60228 15.7498 3.891L3.89006 15.75L3.84356 15.9847L3.02306 20.1097L2.78906 21.2107L3.89081 20.9767L8.01581 20.1562L8.24981 20.109L20.1096 8.25C20.399 7.96554 20.6289 7.62628 20.7859 7.25201C20.9428 6.87774 21.0237 6.47596 21.0237 6.07012C21.0237 5.66428 20.9428 5.2625 20.7859 4.88823C20.6289 4.51397 20.399 4.1747 20.1096 3.89025C19.8245 3.60158 19.485 3.37224 19.1108 3.21545C18.7366 3.05866 18.335 2.97753 17.9293 2.97675V2.97675ZM17.9293 4.40625C18.3073 4.40625 18.6883 4.57875 19.0543 4.9455C19.7841 5.6745 19.7841 6.46575 19.0543 7.1955L18.5158 7.71075L16.2883 5.484L16.8043 4.9455C17.1711 4.57875 17.5513 4.40625 17.9293 4.40625V4.40625ZM15.2346 6.53925L17.4606 8.766L8.39081 17.835C7.90117 16.877 7.12164 16.098 6.16331 15.609L15.2346 6.53925ZM5.20331 16.8285C5.64719 17.0071 6.0504 17.2735 6.38872 17.6118C6.72704 17.9502 6.99349 18.3534 7.17206 18.7972L4.71056 19.2892L5.20331 16.8285Z" fill="#3C5CBF"/>
</svg>
